<?xml version="1.0" encoding="UTF-8" standalone="no"?>
<!DOCTYPE svg PUBLIC "-//W3C//DTD SVG 1.1//EN"
 "http://www.w3.org/Graphics/SVG/1.1/DTD/svg11.dtd">
<!-- Generated by graphviz version 2.43.0 (0)
 -->
<!-- Title: G Pages: 1 -->
<svg width="614pt" height="516pt"
 viewBox="0.00 0.00 614.00 516.00" xmlns="http://www.w3.org/2000/svg" xmlns:xlink="http://www.w3.org/1999/xlink">
<g id="graph0" class="graph" transform="scale(1 1) rotate(0) translate(36 480)">
<title>G</title>
<polygon fill="#f7f7f7" stroke="transparent" points="-36,36 -36,-480 578,-480 578,36 -36,36"/>
<!-- appmodelsuser -->
<g id="node1" class="node">
<title>appmodelsuser</title>
<polygon fill="none" stroke="black" points="216,-407 0,-407 0,0 216,0 216,-407"/>
<polygon fill="#d3d3d3" stroke="transparent" points="0,-369.5 0,-406.5 216,-406.5 216,-369.5 0,-369.5"/>
<polygon fill="none" stroke="black" points="0,-369.5 0,-406.5 216,-406.5 216,-369.5 0,-369.5"/>
<text text-anchor="start" x="91.5" y="-384.3" font-family="Helvetica Neue" font-size="14.00" fill="#333333">User</text>
<polygon fill="#ffffff" stroke="transparent" points="0,-332.5 0,-369.5 216,-369.5 216,-332.5 0,-332.5"/>
<polygon fill="none" stroke="black" points="0,-332.5 0,-369.5 216,-369.5 216,-332.5 0,-332.5"/>
<text text-anchor="start" x="11" y="-347.3" font-family="Helvetica Neue" font-size="14.00" fill="#333333">id (bigint)</text>
<polygon fill="#ffffff" stroke="transparent" points="0,-295.5 0,-332.5 216,-332.5 216,-295.5 0,-295.5"/>
<polygon fill="none" stroke="black" points="0,-295.5 0,-332.5 216,-332.5 216,-295.5 0,-295.5"/>
<text text-anchor="start" x="11" y="-310.3" font-family="Helvetica Neue" font-size="14.00" fill="#333333">first_name (string)</text>
<polygon fill="#ffffff" stroke="transparent" points="0,-258.5 0,-295.5 216,-295.5 216,-258.5 0,-258.5"/>
<polygon fill="none" stroke="black" points="0,-258.5 0,-295.5 216,-295.5 216,-258.5 0,-258.5"/>
<text text-anchor="start" x="11" y="-273.3" font-family="Helvetica Neue" font-size="14.00" fill="#333333">last_name (string)</text>
<polygon fill="#ffffff" stroke="transparent" points="0,-221.5 0,-258.5 216,-258.5 216,-221.5 0,-221.5"/>
<polygon fill="none" stroke="black" points="0,-221.5 0,-258.5 216,-258.5 216,-221.5 0,-221.5"/>
<text text-anchor="start" x="11" y="-236.3" font-family="Helvetica Neue" font-size="14.00" fill="#333333">policy_number (string)</text>
<polygon fill="#ffffff" stroke="transparent" points="0,-184.5 0,-221.5 216,-221.5 216,-184.5 0,-184.5"/>
<polygon fill="none" stroke="black" points="0,-184.5 0,-221.5 216,-221.5 216,-184.5 0,-184.5"/>
<text text-anchor="start" x="11" y="-199.3" font-family="Helvetica Neue" font-size="14.00" fill="#333333">email (string)</text>
<polygon fill="#ffffff" stroke="transparent" points="0,-147.5 0,-184.5 216,-184.5 216,-147.5 0,-147.5"/>
<polygon fill="none" stroke="black" points="0,-147.5 0,-184.5 216,-184.5 216,-147.5 0,-147.5"/>
<text text-anchor="start" x="11" y="-162.3" font-family="Helvetica Neue" font-size="14.00" fill="#333333">email_verified_at (datetime)</text>
<polygon fill="#ffffff" stroke="transparent" points="0,-110.5 0,-147.5 216,-147.5 216,-110.5 0,-110.5"/>
<polygon fill="none" stroke="black" points="0,-110.5 0,-147.5 216,-147.5 216,-110.5 0,-110.5"/>
<text text-anchor="start" x="11" y="-125.3" font-family="Helvetica Neue" font-size="14.00" fill="#333333">password (string)</text>
<polygon fill="#ffffff" stroke="transparent" points="0,-73.5 0,-110.5 216,-110.5 216,-73.5 0,-73.5"/>
<polygon fill="none" stroke="black" points="0,-73.5 0,-110.5 216,-110.5 216,-73.5 0,-73.5"/>
<text text-anchor="start" x="11" y="-88.3" font-family="Helvetica Neue" font-size="14.00" fill="#333333">remember_token (string)</text>
<polygon fill="#ffffff" stroke="transparent" points="0,-36.5 0,-73.5 216,-73.5 216,-36.5 0,-36.5"/>
<polygon fill="none" stroke="black" points="0,-36.5 0,-73.5 216,-73.5 216,-36.5 0,-36.5"/>
<text text-anchor="start" x="11" y="-51.3" font-family="Helvetica Neue" font-size="14.00" fill="#333333">created_at (datetime)</text>
<polygon fill="#ffffff" stroke="transparent" points="0,0.5 0,-36.5 216,-36.5 216,0.5 0,0.5"/>
<polygon fill="none" stroke="black" points="0,0.5 0,-36.5 216,-36.5 216,0.5 0,0.5"/>
<text text-anchor="start" x="11" y="-14.3" font-family="Helvetica Neue" font-size="14.00" fill="#333333">updated_at (datetime)</text>
</g>
<!-- appmodelscar -->
<g id="node2" class="node">
<title>appmodelscar</title>
<polygon fill="none" stroke="black" points="542,-444 365,-444 365,-37 542,-37 542,-444"/>
<polygon fill="#d3d3d3" stroke="transparent" points="365.5,-406.5 365.5,-443.5 542.5,-443.5 542.5,-406.5 365.5,-406.5"/>
<polygon fill="none" stroke="black" points="365.5,-406.5 365.5,-443.5 542.5,-443.5 542.5,-406.5 365.5,-406.5"/>
<text text-anchor="start" x="441.5" y="-421.3" font-family="Helvetica Neue" font-size="14.00" fill="#333333">Car</text>
<polygon fill="#ffffff" stroke="transparent" points="365.5,-369.5 365.5,-406.5 542.5,-406.5 542.5,-369.5 365.5,-369.5"/>
<polygon fill="none" stroke="black" points="365.5,-369.5 365.5,-406.5 542.5,-406.5 542.5,-369.5 365.5,-369.5"/>
<text text-anchor="start" x="376.5" y="-384.3" font-family="Helvetica Neue" font-size="14.00" fill="#333333">id (bigint)</text>
<polygon fill="#ffffff" stroke="transparent" points="365.5,-332.5 365.5,-369.5 542.5,-369.5 542.5,-332.5 365.5,-332.5"/>
<polygon fill="none" stroke="black" points="365.5,-332.5 365.5,-369.5 542.5,-369.5 542.5,-332.5 365.5,-332.5"/>
<text text-anchor="start" x="376.5" y="-347.3" font-family="Helvetica Neue" font-size="14.00" fill="#333333">user_id (bigint)</text>
<polygon fill="#ffffff" stroke="transparent" points="365.5,-295.5 365.5,-332.5 542.5,-332.5 542.5,-295.5 365.5,-295.5"/>
<polygon fill="none" stroke="black" points="365.5,-295.5 365.5,-332.5 542.5,-332.5 542.5,-295.5 365.5,-295.5"/>
<text text-anchor="start" x="376.5" y="-310.3" font-family="Helvetica Neue" font-size="14.00" fill="#333333">number (string)</text>
<polygon fill="#ffffff" stroke="transparent" points="365.5,-258.5 365.5,-295.5 542.5,-295.5 542.5,-258.5 365.5,-258.5"/>
<polygon fill="none" stroke="black" points="365.5,-258.5 365.5,-295.5 542.5,-295.5 542.5,-258.5 365.5,-258.5"/>
<text text-anchor="start" x="376.5" y="-273.3" font-family="Helvetica Neue" font-size="14.00" fill="#333333">manufacturer (string)</text>
<polygon fill="#ffffff" stroke="transparent" points="365.5,-221.5 365.5,-258.5 542.5,-258.5 542.5,-221.5 365.5,-221.5"/>
<polygon fill="none" stroke="black" points="365.5,-221.5 365.5,-258.5 542.5,-258.5 542.5,-221.5 365.5,-221.5"/>
<text text-anchor="start" x="376.5" y="-236.3" font-family="Helvetica Neue" font-size="14.00" fill="#333333">model (string)</text>
<polygon fill="#ffffff" stroke="transparent" points="365.5,-184.5 365.5,-221.5 542.5,-221.5 542.5,-184.5 365.5,-184.5"/>
<polygon fill="none" stroke="black" points="365.5,-184.5 365.5,-221.5 542.5,-221.5 542.5,-184.5 365.5,-184.5"/>
<text text-anchor="start" x="376.5" y="-199.3" font-family="Helvetica Neue" font-size="14.00" fill="#333333">color (string)</text>
<polygon fill="#ffffff" stroke="transparent" points="365.5,-147.5 365.5,-184.5 542.5,-184.5 542.5,-147.5 365.5,-147.5"/>
<polygon fill="none" stroke="black" points="365.5,-147.5 365.5,-184.5 542.5,-184.5 542.5,-147.5 365.5,-147.5"/>
<text text-anchor="start" x="376.5" y="-162.3" font-family="Helvetica Neue" font-size="14.00" fill="#333333">gear_type (string)</text>
<polygon fill="#ffffff" stroke="transparent" points="365.5,-110.5 365.5,-147.5 542.5,-147.5 542.5,-110.5 365.5,-110.5"/>
<polygon fill="none" stroke="black" points="365.5,-110.5 365.5,-147.5 542.5,-147.5 542.5,-110.5 365.5,-110.5"/>
<text text-anchor="start" x="376.5" y="-125.3" font-family="Helvetica Neue" font-size="14.00" fill="#333333">year (integer)</text>
<polygon fill="#ffffff" stroke="transparent" points="365.5,-73.5 365.5,-110.5 542.5,-110.5 542.5,-73.5 365.5,-73.5"/>
<polygon fill="none" stroke="black" points="365.5,-73.5 365.5,-110.5 542.5,-110.5 542.5,-73.5 365.5,-73.5"/>
<text text-anchor="start" x="376.5" y="-88.3" font-family="Helvetica Neue" font-size="14.00" fill="#333333">created_at (datetime)</text>
<polygon fill="#ffffff" stroke="transparent" points="365.5,-36.5 365.5,-73.5 542.5,-73.5 542.5,-36.5 365.5,-36.5"/>
<polygon fill="none" stroke="black" points="365.5,-36.5 365.5,-73.5 542.5,-73.5 542.5,-36.5 365.5,-36.5"/>
<text text-anchor="start" x="376.5" y="-51.3" font-family="Helvetica Neue" font-size="14.00" fill="#333333">updated_at (datetime)</text>
</g>
<!-- appmodelsuser&#45;&gt;appmodelscar -->
<g id="edge1" class="edge">
<title>appmodelsuser:id&#45;&gt;appmodelscar:user_id</title>
<path fill="none" stroke="#d62828" stroke-width="1.8" d="M216,-351.5C216,-351.5 333.15,-351.5 359.7,-351.5"/>
<polygon fill="#d62828" stroke="#d62828" stroke-width="1.8" points="364,-346.5 364,-356.5 362,-356.5 362,-346.5 364,-346.5"/>
<polyline fill="none" stroke="#d62828" stroke-width="1.8" points="365,-351.5 360,-351.5 "/>
<text text-anchor="middle" x="290.5" y="-355.3" font-family="Helvetica Neue" font-size="14.00"> </text>
<text text-anchor="middle" x="260.35" y="-340.3" font-family="Helvetica Neue" font-size="14.00">HasOne</text>
<text text-anchor="middle" x="260.35" y="-325.3" font-family="Helvetica Neue" font-size="14.00">car</text>
</g>
</g>
</svg>
