<?xml version="1.0" encoding="UTF-8" standalone="no"?>
<!DOCTYPE svg PUBLIC "-//W3C//DTD SVG 1.1//EN"
 "http://www.w3.org/Graphics/SVG/1.1/DTD/svg11.dtd">
<!-- Generated by graphviz version 2.43.0 (0)
 -->
<!-- Title: G Pages: 1 -->
<svg width="288pt" height="405pt"
 viewBox="0.00 0.00 288.00 405.00" xmlns="http://www.w3.org/2000/svg" xmlns:xlink="http://www.w3.org/1999/xlink">
<g id="graph0" class="graph" transform="scale(1 1) rotate(0) translate(36 369)">
<title>G</title>
<polygon fill="#f7f7f7" stroke="transparent" points="-36,36 -36,-369 252,-369 252,36 -36,36"/>
<!-- appmodelsuser -->
<g id="node1" class="node">
<title>appmodelsuser</title>
<polygon fill="none" stroke="black" points="216,-333 0,-333 0,0 216,0 216,-333"/>
<polygon fill="#d3d3d3" stroke="transparent" points="0,-295.5 0,-332.5 216,-332.5 216,-295.5 0,-295.5"/>
<polygon fill="none" stroke="black" points="0,-295.5 0,-332.5 216,-332.5 216,-295.5 0,-295.5"/>
<text text-anchor="start" x="91.5" y="-310.3" font-family="Helvetica Neue" font-size="14.00" fill="#333333">User</text>
<polygon fill="#ffffff" stroke="transparent" points="0,-258.5 0,-295.5 216,-295.5 216,-258.5 0,-258.5"/>
<polygon fill="none" stroke="black" points="0,-258.5 0,-295.5 216,-295.5 216,-258.5 0,-258.5"/>
<text text-anchor="start" x="11" y="-273.3" font-family="Helvetica Neue" font-size="14.00" fill="#333333">id (bigint)</text>
<polygon fill="#ffffff" stroke="transparent" points="0,-221.5 0,-258.5 216,-258.5 216,-221.5 0,-221.5"/>
<polygon fill="none" stroke="black" points="0,-221.5 0,-258.5 216,-258.5 216,-221.5 0,-221.5"/>
<text text-anchor="start" x="11" y="-236.3" font-family="Helvetica Neue" font-size="14.00" fill="#333333">name (string)</text>
<polygon fill="#ffffff" stroke="transparent" points="0,-184.5 0,-221.5 216,-221.5 216,-184.5 0,-184.5"/>
<polygon fill="none" stroke="black" points="0,-184.5 0,-221.5 216,-221.5 216,-184.5 0,-184.5"/>
<text text-anchor="start" x="11" y="-199.3" font-family="Helvetica Neue" font-size="14.00" fill="#333333">email (string)</text>
<polygon fill="#ffffff" stroke="transparent" points="0,-147.5 0,-184.5 216,-184.5 216,-147.5 0,-147.5"/>
<polygon fill="none" stroke="black" points="0,-147.5 0,-184.5 216,-184.5 216,-147.5 0,-147.5"/>
<text text-anchor="start" x="11" y="-162.3" font-family="Helvetica Neue" font-size="14.00" fill="#333333">email_verified_at (datetime)</text>
<polygon fill="#ffffff" stroke="transparent" points="0,-110.5 0,-147.5 216,-147.5 216,-110.5 0,-110.5"/>
<polygon fill="none" stroke="black" points="0,-110.5 0,-147.5 216,-147.5 216,-110.5 0,-110.5"/>
<text text-anchor="start" x="11" y="-125.3" font-family="Helvetica Neue" font-size="14.00" fill="#333333">password (string)</text>
<polygon fill="#ffffff" stroke="transparent" points="0,-73.5 0,-110.5 216,-110.5 216,-73.5 0,-73.5"/>
<polygon fill="none" stroke="black" points="0,-73.5 0,-110.5 216,-110.5 216,-73.5 0,-73.5"/>
<text text-anchor="start" x="11" y="-88.3" font-family="Helvetica Neue" font-size="14.00" fill="#333333">remember_token (string)</text>
<polygon fill="#ffffff" stroke="transparent" points="0,-36.5 0,-73.5 216,-73.5 216,-36.5 0,-36.5"/>
<polygon fill="none" stroke="black" points="0,-36.5 0,-73.5 216,-73.5 216,-36.5 0,-36.5"/>
<text text-anchor="start" x="11" y="-51.3" font-family="Helvetica Neue" font-size="14.00" fill="#333333">created_at (datetime)</text>
<polygon fill="#ffffff" stroke="transparent" points="0,0.5 0,-36.5 216,-36.5 216,0.5 0,0.5"/>
<polygon fill="none" stroke="black" points="0,0.5 0,-36.5 216,-36.5 216,0.5 0,0.5"/>
<text text-anchor="start" x="11" y="-14.3" font-family="Helvetica Neue" font-size="14.00" fill="#333333">updated_at (datetime)</text>
</g>
</g>
</svg>
